<?xml version="1.0" encoding="UTF-8"?><svg id="Layer_1" xmlns="http://www.w3.org/2000/svg" xmlns:xlink="http://www.w3.org/1999/xlink" viewBox="0 0 40 40"><defs><style>.cls-1{mask:url(#mask);}.cls-2{stroke-linejoin:bevel;}.cls-2,.cls-3{fill:none;stroke:#603;stroke-linecap:round;stroke-width:1.125px;}.cls-3{stroke-miterlimit:10;}.cls-4{fill:#fff;}.cls-5{fill:rgba(102,0,51,.4);}.cls-6{fill:rgba(102,0,51,.08);}</style><mask id="mask" x="-1" y="-1" width="42" height="42" maskUnits="userSpaceOnUse"><g id="path-1-inside-1_2_262"><path class="cls-4" d="M0,20C0,8.954,8.954,0,20,0s20,8.954,20,20-8.954,20-20,20S0,31.046,0,20Z"/></g></mask></defs><path class="cls-6" d="M0,20C0,8.954,8.954,0,20,0s20,8.954,20,20-8.954,20-20,20S0,31.046,0,20Z"/><g class="cls-1"><path class="cls-5" d="M20,40v-1C9.507,39,1,30.493,1,20H-1c0,11.598,9.402,21,21,21v-1ZM40,20h-1c0,10.493-8.507,19-19,19v2c11.598,0,21-9.402,21-21h-1ZM20,0v1c10.493,0,19,8.507,19,19h2C41,8.402,31.598-1,20-1V0ZM20,0v-1C8.402-1-1,8.402-1,20H1C1,9.507,9.507,1,20,1V0Z"/></g><line class="cls-3" x1="9.295" y1="21.43" x2="9.295" y2="29.258"/><path class="cls-2" d="M8.799,29.687c7.467-7.181,14.934-7.181,22.401,0"/><line class="cls-3" x1="8.721" y1="21.43" x2="31.279" y2="21.43"/><line class="cls-3" x1="16.432" y1="21.43" x2="16.432" y2="24.826"/><line class="cls-3" x1="12.863" y1="21.43" x2="12.863" y2="26.482"/><line class="cls-3" x1="20" y1="21.43" x2="20" y2="24.301"/><line class="cls-3" x1="23.568" y1="21.43" x2="23.568" y2="24.826"/><line class="cls-3" x1="27.137" y1="21.43" x2="27.137" y2="26.482"/><line class="cls-3" x1="30.705" y1="21.43" x2="30.705" y2="29.258"/><path class="cls-3" d="M17.562,19.329v-2.441c0-1.348-1.544-2.441-3.449-2.441h0c-1.905,0-3.449,1.093-3.449,2.441v2.441h6.897Z"/><circle class="cls-3" cx="14.113" cy="11.22" r="2.627"/><path class="cls-3" d="M29.335,19.306v-1.784c0-.985-1.128-1.784-2.52-1.784h0c-1.392,0-2.52.799-2.52,1.784v1.784h5.04Z"/><circle class="cls-3" cx="26.815" cy="13.381" r="1.919"/></svg>