<svg width="40" height="40" viewBox="0 0 40 40" fill="none" xmlns="http://www.w3.org/2000/svg">
<mask id="path-1-inside-1_2_229" fill="white">
<path d="M0 20C0 8.95431 8.95431 0 20 0V0C31.0457 0 40 8.95431 40 20V20C40 31.0457 31.0457 40 20 40V40C8.95431 40 0 31.0457 0 20V20Z"/>
</mask>
<path d="M0 20C0 8.95431 8.95431 0 20 0V0C31.0457 0 40 8.95431 40 20V20C40 31.0457 31.0457 40 20 40V40C8.95431 40 0 31.0457 0 20V20Z" fill="#660033" fill-opacity="0.08"/>
<path d="M0 20M40 20M40 20M0 20M20 0M40 20M20 40M0 20M20 40V39C9.50659 39 1 30.4934 1 20H0H-1C-1 31.598 8.40202 41 20 41V40ZM40 20H39C39 30.4934 30.4934 39 20 39V40V41C31.598 41 41 31.598 41 20H40ZM20 0V1C30.4934 1 39 9.50659 39 20H40H41C41 8.40202 31.598 -1 20 -1V0ZM20 0V-1C8.40202 -1 -1 8.40202 -1 20H0H1C1 9.50659 9.50659 1 20 1V0Z" fill="#660033" fill-opacity="0.4" mask="url(#path-1-inside-1_2_229)"/>
<path d="M20 27.5C24.1421 27.5 27.5 24.1421 27.5 20C27.5 15.8579 24.1421 12.5 20 12.5C15.8579 12.5 12.5 15.8579 12.5 20C12.5 24.1421 15.8579 27.5 20 27.5Z" stroke="#660033" stroke-width="1.125" stroke-linecap="round" stroke-linejoin="round"/>
<path d="M17 20C17 17.2076 18.0742 14.5221 20 12.5C21.9258 14.5221 23 17.2076 23 20C23 22.7924 21.9258 25.4779 20 27.5C18.0742 25.4779 17 22.7924 17 20Z" stroke="#660033" stroke-width="1.125" stroke-linecap="round" stroke-linejoin="round"/>
<path d="M12.5 20H27.5" stroke="#660033" stroke-width="1.125" stroke-linecap="round" stroke-linejoin="round"/>
</svg>
