<?xml version="1.0" encoding="UTF-8"?><svg id="Layer_1" xmlns="http://www.w3.org/2000/svg" xmlns:xlink="http://www.w3.org/1999/xlink" viewBox="0 0 40 40"><defs><style>.cls-1{mask:url(#mask);}.cls-2{fill:#fff;}.cls-3{fill:rgba(102,0,51,.4);}.cls-4{fill:rgba(102,0,51,.08);}.cls-5{fill:#603;}</style><mask id="mask" x="-1" y="-1" width="42" height="42" maskUnits="userSpaceOnUse"><g id="path-1-inside-1_2_262"><path class="cls-2" d="M0,20C0,8.954,8.954,0,20,0s20,8.954,20,20-8.954,20-20,20S0,31.046,0,20Z"/></g></mask></defs><path class="cls-4" d="M0,20C0,8.954,8.954,0,20,0s20,8.954,20,20-8.954,20-20,20S0,31.046,0,20Z"/><g class="cls-1"><path class="cls-3" d="M20,40v-1C9.507,39,1,30.493,1,20H-1c0,11.598,9.402,21,21,21v-1ZM40,20h-1c0,10.493-8.507,19-19,19v2c11.598,0,21-9.402,21-21h-1ZM20,0v1c10.493,0,19,8.507,19,19h2C41,8.402,31.598-1,20-1V0ZM20,0v-1C8.402-1-1,8.402-1,20H1C1,9.507,9.507,1,20,1V0Z"/></g><path class="cls-5" d="M34.165,17.952l-.101-.086c-.031-.062-.07-.133-.125-.21-.117-.156-.546-.639-.943-.74-.187-.047-.374-.023-.522,0-.047,0-.086.008-.125.008-.078.008-.148.008-.218.008-.117,0-.234,0-.351.008-.382-.125-.639-.234-.857-.491-.257-.304-.257-.429-.281-.904l-.008-.148.008-.101c0-.273.008-.662-.273-.873-.203-.164-.405-.132-.499-.109-.288.086-.39.351-.468.569-.055.101-.094.179-.117.257-.094.117-.164.242-.218.343l-.039.062c-.062.086-.109.179-.164.273-.031.062-.055.125-.094.179-.055.078-.132.148-.203.218-.109.109-.21.218-.296.343-.101.148-.125.296-.14.39l-.008.055-.047.023c-.109.055-.203.125-.288.195-.086.062-.148.109-.203.125-.14.039-.288.055-.429.062l-.171.016c-.218.023-.499.047-.748.171-.101.047-.179.109-.242.164,0,0-.008.008-.016.008-.016-.008-.023-.023-.039-.023-.023-.078-.078-.171-.187-.249.062-.195.187-.553,0-.935-.031-.055-.062-.101-.086-.101.008-.055.016-.101.023-.156.008-.288-.148-.436-.242-.538-.031-.062-.086-.164-.187-.249-.257-.203-.491-.164-.616-.125-.288.109-.413.397-.483.67,0-.047.008-.094.008-.148.016-.218.039-.514-.164-.818-.171-.265-.405-.351-.553-.405-.047-.023-.101-.039-.156-.07-.179-.117-.429-.273-.561-.429-.101-.109-.195-.179-.296-.257-.008-.016-.023-.055-.055-.132l-.047-.109c-.047-.117-.101-.265-.203-.405-.023-.148-.07-.296-.164-.436l-.086-.125c-.078-.117-.156-.234-.234-.335.101-.109.14-.257.14-.358,0-.086-.023-.343-.312-.468-.023-.047-.055-.094-.101-.148-.21-.226-.475-.195-.623-.179-.031,0-.055-.008-.078-.016-.14-.023-.436-.078-.701.179-.203.203-.281.452-.343.647-.023.07-.039.14-.07.203-.023.047-.055.094-.086.148-.296,0-.592.008-.888.016-.242.008-.475.016-.709.016-.616,0-.966-.218-1.535-.701-.483-.429-1.021-.795-1.535-1.153l-.265-.187c-.374-.273-.803-.569-1.278-.686-.507-.125-1.262-.249-1.995-.179-1.099.109-2.159.694-2.689,1.496-.078.117-.156.242-.226.366-.195.319-.366.6-.616.803l-.055-.008-.351.257.008.132c-.187.358-.21.811-.226,1.216-.016.195-.023.39-.078.577-.07.14-.296.577.07.865.14.109.304.14.491.086v.008c.055.078.101.148.14.179.14.164.288.32.46.468.242.203.39.483.561.81.07.125.14.257.218.382.094.156.187.312.288.468.109.171.21.335.319.507.055.101.07.218.101.358.023.171.062.358.164.553.148.288.421.491.655.67.109.086.218.164.296.249.109.117.234.226.351.335.203.179.39.343.491.53.203.366.226.507.226.561-.008.031-.016.07-.031.117-.039.132-.101.335-.023.592.016.086.047.164.078.242.047.109.07.171.07.242,0,.023,0,.055-.008.078-.023.171-.07.553.281.787.078.047.125.125.195.257.109.21.273.522.694.647.374.109.616.436.748.694l.14.273c.218.429.421.842.849,1.231.257.242.499.546.772.888.094.117.187.234.281.343s.187.21.281.343c0,.405,0,.81.039,1.231.023.319.086.46.203.725.055.109.07.249.094.405.023.164.055.32.101.483.055.156.14.288.203.39.047.07.086.132.101.179.008.039,0,.094-.008.187-.008.109-.023.249,0,.413.062.343.249.522.405.616.164.101.343.132.538.132.335,0,.686-.109.966-.203l.132-.047c.444-.14,1.005-.312,1.418-.67.062-.055.109-.109.156-.148q.117-.117.296-.148c.779-.14,1.356-.39,1.87-.803.125-.101.281-.133.491-.179.288-.07.655-.148.99-.46.148-.125.234-.273.304-.39.062-.094.109-.171.179-.226.273-.226.694-.421,1.068-.592l.32-.148c.39-.187.92-.444,1.216-.873.07-.101.125-.226.179-.343.047-.109.086-.195.132-.249.312-.312.475-.405.475-.413l.522-.07-.055-.156c.07-.039.132-.078.195-.101.117-.047.218-.101.312-.156.156-.086.234-.125.444-.148.304-.023.888-.07,1.083-.623.062-.171.062-.32.062-.429q0-.101.031-.133c.094-.117.21-.195.343-.249.039-.016.078-.023.117-.031.156-.039.382-.094.569-.288.187-.203.288-.475.366-.694.023-.062.047-.125.07-.179.039-.078.094-.109.296-.203.117-.047.234-.094.343-.164.397-.242.491-.538.296-.896-.016-.039-.031-.062-.039-.094-.039-.125.008-.436.039-.623.008-.055.016-.109.023-.148.545-.047.709-.772.779-1.099.016-.062.031-.125.039-.156.062-.164.156-.319.249-.483.218-.358.452-.764.429-1.309-.008-.249-.07-.499-.421-.608ZM33.012,20.321c-.016.07-.039.187-.07.296h-.055c-.514.023-.655.779-.655.787-.008.07-.016.14-.031.218-.047.327-.109.694-.016.998.008.023.008.039.016.062-.039.016-.078.031-.117.047-.242.101-.577.242-.756.655-.031.07-.062.148-.094.234-.047.14-.109.32-.179.382-.016.016-.086.031-.132.047-.078.016-.156.031-.226.062-.273.101-.507.273-.701.499-.234.273-.234.538-.234.694,0,.07-.008.109,0,.125-.055.039-.249.055-.351.062l-.086.008c-.32.031-.522.148-.709.249-.07.039-.14.078-.226.117-.07.031-.14.07-.218.101-.023-.039-.047-.07-.07-.109-.132-.226-.296-.483-.366-.67-.125-.296-.234-.483-.343-.67-.078-.125-.148-.249-.234-.421.366-.148.725-.32,1.068-.507.14-.078.273-.164.405-.249.179-.109.351-.226.538-.296.055-.023.117-.039.179-.062.273-.086.694-.21.881-.647.117-.273.101-.584.094-.849-.008-.086-.008-.171-.008-.249.016-.273.055-.538.101-.818l.047-.265c.07-.46-.125-.99-.569-1.231,0-.226.023-.452.062-.701l.031-.281-.436-.047.491-.031.281-.047.07-.273c.055-.203,0-.351-.055-.436.39.413.826.553,1.255.701l.094.031.101-.016c.117-.016.226-.016.343-.016h.257c.062-.008.125-.016.195-.023.062-.008.164-.016.195-.016.086.031.335.242.452.413.031.031.047.062.062.094.062.125.156.312.413.436-.016.242-.148.46-.296.709-.117.195-.242.397-.327.631-.016.062-.039.156-.07.273ZM26.972,26.79c-.016.016-.023.023-.031.039-.148.164-.226.327-.281.475-.031.07-.062.14-.101.203-.164.234-.569.429-.873.577l-.304.14c-.421.195-.896.405-1.262.709-.171.148-.281.312-.358.444-.055.086-.101.156-.156.203-.164.148-.351.195-.592.249-.265.062-.569.125-.842.351-.405.319-.849.507-1.489.623-.397.078-.545.195-.74.382l-.125.117c-.281.242-.717.374-1.107.499l-.14.047c-.164.055-.655.21-.772.14-.008-.039,0-.101.008-.171.016-.14.031-.327-.031-.538-.047-.156-.125-.281-.195-.39-.047-.07-.086-.14-.109-.195-.031-.117-.047-.226-.062-.343-.031-.195-.062-.413-.187-.678-.078-.187-.094-.218-.109-.39-.016-.234-.031-.452-.031-.678.281-.132.483-.491.507-.686.016-.179-.031-.327-.078-.444.008,0,.023,0,.039.008.07.031.203.086.366.047.21-.039.358-.164.46-.257.031-.023.07-.062.078-.07.039-.008.148.023.242.047.125.031.281.078.452.078.078,0,.156.008.234.016.101.008.203.016.312.016.187,0,.366-.031.538-.062.288-.055.413-.07.623.086.164.171.327.218.616.187.553-.055.709-.452.803-.694l.039-.109c.281-.647.733-1.13,1.231-1.333.545-.226,1.107-.421,1.675-.616.132-.047.257-.094.39-.132.14-.055.281-.101.413-.148.109-.039.218-.078.319-.125.062.125.117.226.171.32v.016c.031.148.07.288.101.343.07.062.148.148.226.257,0,0,.008,0,.008.008.023.047.047.101.07.164.109.249.281.538.444.795.016.023.031.055.047.086-.047.031-.094.07-.14.117-.094.078-.187.171-.296.273ZM14.652,24.631c-.304-.577-.748-.966-1.278-1.122-.047-.016-.07-.039-.164-.21-.078-.156-.179-.351-.382-.507.008-.008.008-.016.008-.016.008-.07.016-.14.016-.203-.008-.234-.078-.413-.132-.561-.023-.047-.039-.094-.055-.148,0-.016,0-.039.023-.109.023-.078.055-.195.062-.327.016-.343-.156-.709-.327-1.021-.179-.319-.444-.553-.678-.764-.101-.094-.203-.179-.296-.281-.109-.117-.257-.234-.405-.351-.164-.117-.351-.257-.413-.374-.031-.078-.055-.179-.078-.304-.031-.179-.07-.413-.203-.647-.109-.179-.226-.358-.335-.53-.094-.148-.187-.296-.281-.452-.07-.109-.132-.234-.195-.343-.195-.374-.397-.756-.764-1.068-.14-.117-.257-.249-.374-.374-.016-.016-.039-.047-.055-.086-.109-.164-.226-.335-.405-.421.031-.187.047-.39.055-.592.008-.226.023-.491.07-.686h.125l.023-.203c.421-.304.662-.709.896-1.099.07-.109.14-.226.21-.335.444-.67,1.348-1.036,2.042-1.107.475-.047,1.083.008,1.707.156.312.078.647.312.966.546l.281.195c.499.343,1.013.701,1.457,1.091.584.507,1.146.927,2.112.927.242.039.491-.008.74-.016.195-.008.405-.016.6-.016.156,0,.312,0,.46.008.156,0,.312.016.46.031.008.117.055.257.171.382.047.047.101.094.164.132.21.117.483.101.904.055.031.016.07.031.109.047.016.023.023.047.031.07l.07.179c.023.055.055.125.101.195.047.086.117.171.234.265.078.055.109.086.148.125.203.234.475.413.764.592.101.07.203.109.296.148.117.039.125.047.14.07.031.055.031.125.023.281-.008.164-.023.374.047.6.055.179.203.546.421.772.07.07.148.132.226.195.031.023.07.055.101.086l.016.016c.023.023.039.047.055.078.086.117.21.296.436.382.086.031.164.047.249.047l.094.148.078.132c.249.397.452.678.639.896l.086.109c.117.14.242.304.436.421.397.257.881.312,1.278.358l.288.031c.07.008.14.016.21.023.156.023.319.039.491.039.031.008.062.008.094.008.132,0,.265-.008.397-.031.148-.023.288-.062.429-.117.086-.039.164-.078.226-.117,0,.031,0,.062-.008.086l-.039.257c-.047.288-.094.592-.109.92-.008.101,0,.21,0,.32.008.171.016.382-.023.475-.023.062-.187.109-.319.156-.086.023-.171.047-.249.078-.273.109-.491.249-.694.382-.117.07-.226.148-.351.21-.312.171-.631.327-.966.46-.14.062-.265.125-.405.179h-.008c-.031-.047-.07-.078-.117-.094-.008.047-.008.094-.008.14-.14.055-.281.109-.421.156-.14.055-.281.101-.429.148-.171.07-.351.125-.522.187-.577.195-1.153.397-1.714.623-.242.101-.468.234-.678.413-.429.343-.787.826-1.029,1.395l-.055.14c-.023.047-.047.117-.047.132-.031-.031-.07-.055-.109-.086-.468-.312-.888-.234-1.224-.171-.125.016-.242.039-.382.047-.078-.008-.164-.008-.242-.016-.094-.008-.195-.016-.296-.016-.062,0-.14-.023-.226-.047-.187-.055-.444-.125-.74-.039-.171.055-.296.164-.39.242-.008.008-.016.016-.023.016-.023,0-.055-.008-.086-.016-.031,0-.062-.008-.101-.008-.164-.008-.39-.016-.623.132-.086.055-.156.109-.21.171l-.008.008c-.086.086-.132.187-.156.296-.086-.101-.179-.21-.304-.358v-.008c-.242-.304-.514-.655-.818-.935-.312-.288-.468-.6-.67-.99l-.148-.288ZM26.528,18.451c.008,0,.008-.008.016-.008.031-.023.07-.055.086-.062.101-.055.273-.07.436-.086l.164-.016c.187-.016.397-.031.6-.094.21-.055.366-.171.491-.265.055-.047.101-.086.187-.132.008,0,.008-.008.016-.008.203-.109.366-.218.452-.546.008-.055.016-.101.023-.187.047-.07.117-.132.171-.195q.008-.008.016-.016c.023-.016.039-.031.055-.047,0,.171.016.382.07.545-.109.133-.171.304-.195.507l-.031.265c-.023.218-.055.436-.055.67-.016.132-.008.265,0,.413.008.008.008.023.008.031v.016c-.086.039-.179.062-.281.062-.14.023-.296.023-.452.008-.14-.008-.288-.023-.436-.047l-.242-.031h-.008l-.055-.008c-.319-.039-.686-.078-.904-.218-.078-.055-.156-.148-.234-.242l-.101-.125c-.008-.016-.016-.023-.031-.031.101-.055.179-.109.234-.156Z"/></svg>