<svg width="40" height="40" viewBox="0 0 40 40" fill="none" xmlns="http://www.w3.org/2000/svg">
<mask id="path-1-inside-1_2_156" fill="white">
<path d="M0 20C0 8.95431 8.95431 0 20 0V0C31.0457 0 40 8.95431 40 20V20C40 31.0457 31.0457 40 20 40V40C8.95431 40 0 31.0457 0 20V20Z"/>
</mask>
<path d="M0 20C0 8.95431 8.95431 0 20 0V0C31.0457 0 40 8.95431 40 20V20C40 31.0457 31.0457 40 20 40V40C8.95431 40 0 31.0457 0 20V20Z" fill="#660033" fill-opacity="0.08"/>
<path d="M0 20M40 20M40 20M0 20M20 0M40 20M20 40M0 20M20 40V39C9.50659 39 1 30.4934 1 20H0H-1C-1 31.598 8.40202 41 20 41V40ZM40 20H39C39 30.4934 30.4934 39 20 39V40V41C31.598 41 41 31.598 41 20H40ZM20 0V1C30.4934 1 39 9.50659 39 20H40H41C41 8.40202 31.598 -1 20 -1V0ZM20 0V-1C8.40202 -1 -1 8.40202 -1 20H0H1C1 9.50659 9.50659 1 20 1V0Z" fill="#660033" fill-opacity="0.4" mask="url(#path-1-inside-1_2_156)"/>
<path d="M26 20.7501C26 24.5001 23.375 26.3751 20.255 27.4626C20.0916 27.518 19.9142 27.5153 19.7525 27.4551C16.625 26.3751 14 24.5001 14 20.7501V15.5001C14 15.3012 14.079 15.1104 14.2197 14.9698C14.3603 14.8291 14.5511 14.7501 14.75 14.7501C16.25 14.7501 18.125 13.8501 19.43 12.7101C19.5889 12.5743 19.791 12.4998 20 12.4998C20.209 12.4998 20.4111 12.5743 20.57 12.7101C21.8825 13.8576 23.75 14.7501 25.25 14.7501C25.4489 14.7501 25.6397 14.8291 25.7803 14.9698C25.921 15.1104 26 15.3012 26 15.5001V20.7501Z" stroke="#660033" stroke-width="1.125" stroke-linecap="round" stroke-linejoin="round"/>
</svg>
